# xmcd
#
# Track frame offsets: 
#        150
#        20262
#        41550
#        61810
#        80970
#        98196
#        120233
#        144118
#        170870
#        192644
#        224922
#        258412
#        282162
#        307781
#        334400
#        351756
#
# Disc length: 4912 seconds
#
# Revision: 11
# Processed by: cddbd v1.5.2PL0 Copyright (c) Steve Scherf et al.
# Submitted via: ExactAudioCopy v0.95a5
#
DISCID=f2132e10
DTITLE=Various Artist - Sabress, The Israeli Dance Project
DYEAR=1900
DGENRE=Electronic
TTITLE0=ליאור נרקיס ושלומי שבת - לכל אחד יש - גרסת 2000
TTITLE1=יגאל בשן - ציפור קטנה בלב - ברסת איצטדיונים
TTITLE2=ניסים סרוסי - אשליות גרסת כח
TTITLE3=רוחמה רז - חלומות גרסת המעודונים
TTITLE4=זוהר ארגוב - הפרח בגני גרסת המלך
TTITLE5=גאיה - יחד (שיר לאהבה) - גרסה אתנית
TTITLE6=שרי לעולם בעקבות השמש
TTITLE7=אושיק לוי - חוזה לך ברח - גרסה תנ''כית
TTITLE8=מיסטר הרי - אל תשכחי אותנו - גרסת חורף
TTITLE9=צביקה פיק - אהבה בסוף הקיץ - גרסת האוהבים
TTITLE10=אניקס - ציפור מדבר - גרסת פטה מורגנה
TTITLE11=חדוה עמרני - איזה ריקוד - גרסת דיסקו
TTITLE12=DJ דרבוקה - נעימנת השיכורים - גרסת סולו-דרבוקה
TTITLE13=רותה קליין - זהו זה - גרסת חולצה ותקליט
TTITLE14=ניסים סרוסי - אשליות - גרסת גיטרות
TTITLE15=ליאור נרקיס ושלומי שבת - לכל אחד יש - גרסת 2001
EXTD=
EXTT0=
EXTT1=
EXTT2=
EXTT3=
EXTT4=
EXTT5=
EXTT6=
EXTT7=
EXTT8=
EXTT9=
EXTT10=
EXTT11=
EXTT12=
EXTT13=
EXTT14=
EXTT15=
PLAYORDER=
